<svg width="220" height="250" viewBox="0 0 220 250" fill="none" xmlns="http://www.w3.org/2000/svg">
<mask id="path-1-inside-1_16_30" fill="white">
<path fill-rule="evenodd" clip-rule="evenodd" d="M220 83.3333C220 37.3096 170.751 0 110 0C49.2487 0 0 37.3096 0 83.3333V250H220V83.3333Z"/>
</mask>
<path fill-rule="evenodd" clip-rule="evenodd" d="M220 83.3333C220 37.3096 170.751 0 110 0C49.2487 0 0 37.3096 0 83.3333V250H220V83.3333Z" fill="#D9D9D9"/>
<path d="M0 250H-200V450H0V250ZM220 250V450H420V250H220ZM110 200C100.813 200 84.951 197.418 67.0102 183.826C48.9406 170.137 20 136.523 20 83.3333H420C420 -15.8803 366.435 -91.1608 308.553 -135.011C250.8 -178.763 179.938 -200 110 -200V200ZM200 83.3333C200 136.523 171.059 170.137 152.99 183.826C135.049 197.418 119.187 200 110 200V-200C40.0621 -200 -30.8003 -178.763 -88.5533 -135.011C-146.435 -91.1608 -200 -15.8803 -200 83.3333H200ZM200 250V83.3333H-200V250H200ZM220 50H0V450H220V50ZM20 83.3333V250H420V83.3333H20Z" fill="#FF9710" mask="url(#path-1-inside-1_16_30)"/>
</svg>
