<svg width="760" height="520" viewBox="0 0 760 520" fill="none" xmlns="http://www.w3.org/2000/svg">
<mask id="path-1-inside-1_1_15" fill="white">
<path fill-rule="evenodd" clip-rule="evenodd" d="M212.595 457.722C190.074 496.552 160.841 520 128.892 520C57.7069 520 0 403.594 0 260C0 116.406 57.7069 0 128.892 0C160.841 0 190.074 23.4479 212.595 62.2779C235.115 23.4479 264.349 0 296.297 0C328.246 0 357.48 23.4479 380 62.2779C402.52 23.4479 431.754 0 463.703 0C495.651 0 524.885 23.4479 547.405 62.2778C569.926 23.4479 599.159 0 631.108 0C702.293 0 760 116.406 760 260C760 403.594 702.293 520 631.108 520C599.159 520 569.926 496.552 547.405 457.722C524.885 496.552 495.651 520 463.703 520C431.754 520 402.52 496.552 380 457.722C357.48 496.552 328.246 520 296.297 520C264.349 520 235.115 496.552 212.595 457.722Z"/>
</mask>
<path fill-rule="evenodd" clip-rule="evenodd" d="M212.595 457.722C190.074 496.552 160.841 520 128.892 520C57.7069 520 0 403.594 0 260C0 116.406 57.7069 0 128.892 0C160.841 0 190.074 23.4479 212.595 62.2779C235.115 23.4479 264.349 0 296.297 0C328.246 0 357.48 23.4479 380 62.2779C402.52 23.4479 431.754 0 463.703 0C495.651 0 524.885 23.4479 547.405 62.2778C569.926 23.4479 599.159 0 631.108 0C702.293 0 760 116.406 760 260C760 403.594 702.293 520 631.108 520C599.159 520 569.926 496.552 547.405 457.722C524.885 496.552 495.651 520 463.703 520C431.754 520 402.52 496.552 380 457.722C357.48 496.552 328.246 520 296.297 520C264.349 520 235.115 496.552 212.595 457.722Z" fill="#D9D9D9"/>
<path d="M212.595 457.722L515.359 282.127L212.595 -239.906L-90.17 282.127L212.595 457.722ZM212.595 62.2779L-90.17 237.873L212.595 759.906L515.359 237.873L212.595 62.2779ZM380 62.2779L77.2355 237.873L380 759.906L682.765 237.873L380 62.2779ZM547.405 62.2778L244.641 237.873L547.405 759.906L850.17 237.873L547.405 62.2778ZM547.405 457.722L850.17 282.127L547.405 -239.906L244.641 282.127L547.405 457.722ZM380 457.722L682.765 282.127L380 -239.906L77.2355 282.127L380 457.722ZM-90.17 282.127C-85.0359 273.275 -69.6522 249.171 -37.3344 224.64C-2.67901 198.334 54.5336 170 128.892 170V870C346.179 870 468.116 714.774 515.359 633.317L-90.17 282.127ZM128.892 170C212.425 170 273.203 205.419 305.893 233.31C336.326 259.276 348.619 282.917 351.334 288.393C356.701 299.22 350 289.656 350 260H-350C-350 373.938 -327.848 494.374 -275.831 599.302C-234.619 682.434 -112.268 870 128.892 870V170ZM350 260C350 230.344 356.701 220.78 351.334 231.607C348.619 237.083 336.326 260.724 305.893 286.69C273.203 314.581 212.425 350 128.892 350V-350C-112.268 -350 -234.619 -162.434 -275.831 -79.3024C-327.848 25.6265 -350 146.062 -350 260H350ZM128.892 350C54.5337 350 -2.67896 321.666 -37.3344 295.36C-69.6522 270.829 -85.036 246.725 -90.17 237.873L515.359 -113.317C468.116 -194.774 346.179 -350 128.892 -350V350ZM515.359 237.873C510.225 246.725 494.841 270.829 462.524 295.36C427.868 321.666 370.656 350 296.297 350V-350C79.01 -350 -42.9271 -194.774 -90.17 -113.317L515.359 237.873ZM296.297 350C221.939 350 164.726 321.666 130.071 295.36C97.7531 270.829 82.3694 246.725 77.2355 237.873L682.765 -113.317C635.522 -194.774 513.585 -350 296.297 -350V350ZM682.765 237.873C677.631 246.725 662.247 270.829 629.929 295.36C595.274 321.666 538.061 350 463.703 350V-350C246.415 -350 124.478 -194.775 77.2354 -113.317L682.765 237.873ZM463.703 350C389.344 350 332.132 321.666 297.476 295.36C265.159 270.829 249.775 246.725 244.641 237.873L850.17 -113.317C802.927 -194.774 680.99 -350 463.703 -350V350ZM850.17 237.873C845.036 246.725 829.652 270.829 797.334 295.36C762.679 321.666 705.466 350 631.108 350V-350C413.821 -350 291.884 -194.774 244.641 -113.317L850.17 237.873ZM631.108 350C547.575 350 486.797 314.581 454.107 286.69C423.674 260.724 411.381 237.083 408.666 231.607C403.299 220.779 410 230.344 410 260H1110C1110 146.062 1087.85 25.6265 1035.83 -79.3024C994.619 -162.434 872.268 -350 631.108 -350V350ZM410 260C410 289.656 403.299 299.22 408.666 288.393C411.381 282.917 423.674 259.276 454.107 233.31C486.797 205.419 547.575 170 631.108 170V870C872.268 870 994.619 682.434 1035.83 599.302C1087.85 494.374 1110 373.938 1110 260H410ZM631.108 170C705.466 170 762.679 198.334 797.334 224.64C829.652 249.171 845.036 273.275 850.17 282.127L244.641 633.317C291.884 714.774 413.821 870 631.108 870V170ZM244.641 282.127C249.775 273.275 265.159 249.171 297.476 224.64C332.132 198.334 389.344 170 463.703 170V870C680.99 870 802.927 714.774 850.17 633.317L244.641 282.127ZM463.703 170C538.061 170 595.274 198.334 629.929 224.64C662.247 249.171 677.631 273.275 682.765 282.127L77.2354 633.317C124.478 714.774 246.415 870 463.703 870V170ZM77.2355 282.127C82.3694 273.275 97.7531 249.171 130.071 224.64C164.726 198.334 221.939 170 296.297 170V870C513.585 870 635.522 714.774 682.765 633.317L77.2355 282.127ZM296.297 170C370.656 170 427.868 198.334 462.524 224.64C494.841 249.171 510.225 273.275 515.359 282.127L-90.17 633.317C-42.9271 714.774 79.0099 870 296.297 870V170Z" fill="black" mask="url(#path-1-inside-1_1_15)"/>
</svg>
