<svg width="740" height="520" viewBox="0 0 740 520" fill="none" xmlns="http://www.w3.org/2000/svg">
<mask id="path-1-inside-1_1_15" fill="white">
<path fill-rule="evenodd" clip-rule="evenodd" d="M207 457.722C185.072 496.552 156.608 520 125.5 520C56.1883 520 0 403.594 0 260C0 116.406 56.1883 0 125.5 0C156.608 0 185.072 23.4479 207 62.2779C228.928 23.4479 257.392 0 288.5 0C319.608 0 348.072 23.4479 370 62.2779C391.928 23.4479 420.392 0 451.5 0C482.608 0 511.072 23.4479 533 62.2779C554.928 23.4479 583.392 0 614.5 0C683.812 0 740 116.406 740 260C740 403.594 683.812 520 614.5 520C583.392 520 554.928 496.552 533 457.722C511.072 496.552 482.608 520 451.5 520C420.392 520 391.928 496.552 370 457.722C348.072 496.552 319.608 520 288.5 520C257.392 520 228.928 496.552 207 457.722Z"/>
</mask>
<path fill-rule="evenodd" clip-rule="evenodd" d="M207 457.722C185.072 496.552 156.608 520 125.5 520C56.1883 520 0 403.594 0 260C0 116.406 56.1883 0 125.5 0C156.608 0 185.072 23.4479 207 62.2779C228.928 23.4479 257.392 0 288.5 0C319.608 0 348.072 23.4479 370 62.2779C391.928 23.4479 420.392 0 451.5 0C482.608 0 511.072 23.4479 533 62.2779C554.928 23.4479 583.392 0 614.5 0C683.812 0 740 116.406 740 260C740 403.594 683.812 520 614.5 520C583.392 520 554.928 496.552 533 457.722C511.072 496.552 482.608 520 451.5 520C420.392 520 391.928 496.552 370 457.722C348.072 496.552 319.608 520 288.5 520C257.392 520 228.928 496.552 207 457.722Z" fill="#D9D9D9"/>
<path d="M207 457.722L511.763 285.619L207 -254.062L-97.7632 285.619L207 457.722ZM207 62.2779L-97.7633 234.381L207 774.062L511.763 234.381L207 62.2779ZM370 62.2779L65.2367 234.381L370 774.062L674.763 234.381L370 62.2779ZM533 62.2779L228.237 234.381L533 774.062L837.763 234.381L533 62.2779ZM533 457.722L837.763 285.619L533 -254.062L228.237 285.619L533 457.722ZM370 457.722L674.763 285.619L370 -254.062L65.2368 285.619L370 457.722ZM-97.7632 285.619C-92.9795 277.148 -77.8855 252.64 -45.496 227.39C-10.7305 200.288 48.0909 170 125.5 170V870C346.653 870 467.276 708.604 511.763 629.825L-97.7632 285.619ZM125.5 170C212.445 170 274.791 207.832 307.314 236.331C337.635 262.9 349.573 286.759 351.959 291.703C356.783 301.695 350 290.914 350 260H-350C-350 372.68 -328.689 491.899 -278.443 595.993C-240.074 675.483 -119.651 870 125.5 870V170ZM350 260C350 229.086 356.783 218.305 351.959 228.297C349.573 233.241 337.635 257.1 307.314 283.669C274.791 312.168 212.445 350 125.5 350V-350C-119.651 -350 -240.074 -155.483 -278.443 -75.993C-328.689 28.1012 -350 147.32 -350 260H350ZM125.5 350C48.091 350 -10.7305 319.712 -45.4959 292.61C-77.8855 267.36 -92.9795 242.852 -97.7633 234.381L511.763 -109.825C467.276 -188.604 346.653 -350 125.5 -350V350ZM511.763 234.381C506.98 242.852 491.886 267.36 459.496 292.61C424.73 319.712 365.909 350 288.5 350V-350C67.3472 -350 -53.2757 -188.604 -97.7633 -109.825L511.763 234.381ZM288.5 350C211.091 350 152.27 319.712 117.504 292.61C85.1145 267.36 70.0205 242.852 65.2367 234.381L674.763 -109.825C630.276 -188.604 509.653 -350 288.5 -350V350ZM674.763 234.381C669.98 242.852 654.886 267.36 622.496 292.61C587.73 319.712 528.909 350 451.5 350V-350C230.347 -350 109.724 -188.604 65.2367 -109.825L674.763 234.381ZM451.5 350C374.091 350 315.269 319.712 280.504 292.61C248.114 267.36 233.02 242.852 228.237 234.381L837.763 -109.825C793.276 -188.604 672.653 -350 451.5 -350V350ZM837.763 234.381C832.98 242.852 817.886 267.36 785.496 292.61C750.731 319.712 691.909 350 614.5 350V-350C393.347 -350 272.724 -188.604 228.237 -109.825L837.763 234.381ZM614.5 350C527.555 350 465.209 312.168 432.686 283.669C402.365 257.1 390.427 233.241 388.041 228.297C383.217 218.305 390 229.086 390 260H1090C1090 147.32 1068.69 28.1012 1018.44 -75.993C980.074 -155.483 859.651 -350 614.5 -350V350ZM390 260C390 290.914 383.217 301.695 388.041 291.703C390.427 286.759 402.365 262.9 432.686 236.331C465.209 207.832 527.555 170 614.5 170V870C859.651 870 980.074 675.483 1018.44 595.993C1068.69 491.899 1090 372.68 1090 260H390ZM614.5 170C691.909 170 750.731 200.288 785.496 227.39C817.886 252.64 832.98 277.148 837.763 285.619L228.237 629.825C272.724 708.604 393.347 870 614.5 870V170ZM228.237 285.619C233.02 277.148 248.114 252.64 280.504 227.39C315.269 200.288 374.091 170 451.5 170V870C672.653 870 793.276 708.604 837.763 629.825L228.237 285.619ZM451.5 170C528.909 170 587.731 200.288 622.496 227.39C654.886 252.64 669.98 277.148 674.763 285.619L65.2368 629.825C109.724 708.604 230.347 870 451.5 870V170ZM65.2368 285.619C70.0205 277.148 85.1145 252.64 117.504 227.39C152.269 200.288 211.091 170 288.5 170V870C509.653 870 630.276 708.604 674.763 629.825L65.2368 285.619ZM288.5 170C365.909 170 424.731 200.288 459.496 227.39C491.886 252.64 506.98 277.148 511.763 285.619L-97.7632 629.825C-53.2758 708.604 67.3472 870 288.5 870V170Z" fill="black" mask="url(#path-1-inside-1_1_15)"/>
</svg>
