<svg width="700" height="520" viewBox="0 0 700 520" fill="none" xmlns="http://www.w3.org/2000/svg">
<mask id="path-1-inside-1_1_2" fill="white">
<path d="M0 0L280 78.7935L350 0L408.947 78.7935L700 0V260V520L408.947 442.839L350 520L280 442.839L0 520V0Z"/>
</mask>
<path d="M0 0L280 78.7935L350 0L408.947 78.7935L700 0V260V520L408.947 442.839L350 520L280 442.839L0 520V0Z" fill="#D9D9D9"/>
<path d="M0 0L135.442 -481.306L-500 -660.123L-500 0H0ZM700 0H1200V-653.358L569.344 -482.627L700 0ZM700 520L571.871 1003.3L1200 1169.83V520H700ZM0 520H-500V1176.43L132.836 1002.03L0 520ZM350 520L-20.32 855.951L382.958 1300.49L747.324 823.536L350 520ZM408.947 442.839L537.077 -40.4654L214.325 -126.03L11.6236 139.303L408.947 442.839ZM280 442.839L650.32 106.888L443.67 -120.903L147.164 -39.1929L280 442.839ZM350 0L750.36 -299.519L383.237 -790.244L-23.7958 -332.079L350 0ZM408.947 78.7935L8.58722 378.313L211.937 650.126L539.604 561.421L408.947 78.7935ZM280 78.7935L144.558 560.099L445.89 644.896L653.796 410.873L280 78.7935ZM500 520V0H-500V520H500ZM828.129 36.6958L537.077 -40.4654L280.818 926.143L571.871 1003.3L828.129 36.6958ZM11.6236 139.303L-47.3237 216.464L747.324 823.536L806.271 746.374L11.6236 139.303ZM720.32 184.049L650.32 106.888L-90.32 778.79L-20.32 855.951L720.32 184.049ZM147.164 -39.1929L-132.836 37.9683L132.836 1002.03L412.836 924.87L147.164 -39.1929ZM200 0V260H1200V0H200ZM200 260V520H1200V260H200ZM-50.3601 299.519L8.58722 378.313L809.308 -220.726L750.36 -299.519L-50.3601 299.519ZM539.604 561.421L830.656 482.627L569.344 -482.627L278.291 -403.834L539.604 561.421ZM-135.442 481.306L144.558 560.099L415.442 -402.512L135.442 -481.306L-135.442 481.306ZM653.796 410.873L723.796 332.079L-23.7958 -332.079L-93.7958 -253.286L653.796 410.873Z" fill="black" mask="url(#path-1-inside-1_1_2)"/>
</svg>
